<svg width="1440" height="58" viewBox="0 0 1440 58" fill="none" xmlns="http://www.w3.org/2000/svg">
<path d="M219.037 0C236.18 0 250.782 1.26667 262.845 3.8C274.908 6.33333 280.939 9.4 280.939 13V34.4H51.4262V45C51.4262 45.6 52.3785 46.1333 54.2832 46.6C56.5053 47 59.0449 47.2 61.9019 47.2H280.939V58H61.9019C44.7598 58 30.1573 56.7333 18.0944 54.2C6.03147 51.6667 0 48.6 0 45V13C0 9.4 6.03147 6.33333 18.0944 3.8C30.1573 1.26667 44.7598 0 61.9019 0H219.037ZM51.4262 23.6H229.513V13C229.513 12.4 228.402 11.9 226.18 11.5C224.275 11.0333 221.894 10.8 219.037 10.8H61.9019C59.0449 10.8 56.5053 11.0333 54.2832 11.5C52.3785 11.9 51.4262 12.4 51.4262 13V23.6ZM406.577 0H560.856V10.8H406.577C403.72 10.8 401.181 11.0333 398.958 11.5C397.054 11.9 396.101 12.4 396.101 13V58H344.675V13C344.675 9.4 350.707 6.33333 362.77 3.8C374.833 1.26667 389.435 0 406.577 0ZM674.05 0H828.328V10.8H674.05C671.193 10.8 668.653 11.0333 666.431 11.5C664.526 11.9 663.574 12.4 663.574 13V58H612.148V13C612.148 9.4 618.179 6.33333 630.242 3.8C642.305 1.26667 656.908 0 674.05 0ZM941.046 0H1098.18C1115.32 0 1129.93 1.26667 1141.99 3.8C1154.05 6.33333 1160.08 9.4 1160.08 13V45C1160.08 48.6 1154.05 51.6667 1141.99 54.2C1129.93 56.7333 1115.32 58 1098.18 58H941.046C923.904 58 909.302 56.7333 897.239 54.2C885.176 51.6667 879.144 48.6 879.144 45V13C879.144 9.4 885.176 6.33333 897.239 3.8C909.302 1.26667 923.904 0 941.046 0ZM1098.18 10.8H941.046C938.189 10.8 935.65 11.0333 933.428 11.5C931.523 11.9 930.571 12.4 930.571 13V45C930.571 45.6 931.523 46.1333 933.428 46.6C935.65 47 938.189 47.2 941.046 47.2H1098.18C1101.04 47.2 1103.42 47 1105.32 46.6C1107.55 46.1333 1108.66 45.6 1108.66 45V13C1108.66 12.4 1107.55 11.9 1105.32 11.5C1103.42 11.0333 1101.04 10.8 1098.18 10.8ZM1285.72 0H1440V10.8H1285.72C1282.86 10.8 1280.32 11.0333 1278.1 11.5C1276.2 11.9 1275.25 12.4 1275.25 13V58H1223.82V13C1223.82 9.4 1229.85 6.33333 1241.91 3.8C1253.98 1.26667 1268.58 0 1285.72 0Z" fill="white"/>
</svg>
